<svg xmlns="http://www.w3.org/2000/svg" xmlns:xlink="http://www.w3.org/1999/xlink" x="0px" y="0px" viewBox="0 0 100 100" style="enable-background:new 0 0 100 100;" xml:space="preserve"><g>	<path d="M20.6,85c0.3,0,0.6-0.2,0.8-0.4c0.5-0.5,0.5-1.4,0-1.9c-1.2-1.2-4-2.2-8.1-3.6c-0.2-0.1-0.4-0.1-0.6-0.2  c2.9-0.9,5.9-1.6,8.9-2.3c2.4-0.6,5-1.1,7.5-1.8c5.4-1.5,11.1-2.8,16.6-4.1c11.7-2.7,23.7-5.4,34.5-10.7c5.7-2.8,8.5-5.6,8.6-8.7  c0.1-3-2.4-5.8-7.5-8.5c-0.4-0.2-0.8-0.4-1.2-0.6c-1.3-0.6-3-1.5-3.2-2.3c-0.1-0.3,0.2-0.8,0.8-1.4c2.1-2.3,5.1-4.3,8.1-6.1  c1-0.6,1.9-1.2,2.8-1.8c6.4-4.4,6.5-7.7,5.5-9.7C90.9,15,82.2,15,76.4,15c-1,0-2,0-2.9,0c-0.7,0-1.4,0.6-1.4,1.3  c0,0.7,0.6,1.4,1.3,1.4c0.9,0,1.9,0,3,0c5.4,0,12.8,0,15.1,4.4c0.7,1.4-0.9,3.7-4.6,6.2c-0.9,0.6-1.8,1.2-2.7,1.8  c-3.1,2-6.2,4-8.6,6.6c-1.2,1.3-1.6,2.5-1.4,3.7c0.4,2.1,2.6,3.2,4.6,4.2c0.4,0.2,0.8,0.4,1.1,0.6c4,2.2,6.1,4.3,6.1,6.1  c0,1.9-2.5,4.1-7,6.3C68.5,62.7,56.6,65.4,45,68.1c-5.5,1.3-11.3,2.6-16.7,4.1c-2.4,0.7-4.9,1.2-7.3,1.8c-3.1,0.7-6.3,1.4-9.5,2.4  c0.7-0.7,1.7-1.6,2.6-2.4c0.6-0.4,1.1-0.8,1.6-1.2c1.8-1.8,2-1.9,1.8-2.7l-0.2-0.8l-0.8-0.2c-0.8-0.2-0.8-0.2-4,2.7  c-0.6,0.4-1.2,0.7-1.9,1.1c-1.9,1.1-3.8,2.2-4.8,3.7c-0.3,0.4-0.3,1-0.2,1.5c0.4,1.2,2.1,1.9,6.8,3.5c2.6,0.9,6.2,2.1,7,2.9  C19.8,84.9,20.2,85,20.6,85z"></path></g></svg>