<svg xmlns="http://www.w3.org/2000/svg" viewBox="0 0 100 100" style="enable-background:new 0 0 100 100;" xml:space="preserve"><g>	<path d="M2.6,4.2C1.7,4.2,1,3.5,1,2.6S1.7,1,2.6,1s1.6,0.7,1.6,1.6S3.5,4.2,2.6,4.2z M2.6,1.5C2,1.5,1.5,2,1.5,2.6S2,3.7,2.6,3.7  s1.1-0.5,1.1-1.1S3.2,1.5,2.6,1.5z"></path>	<path d="M12.1,4.2c-0.9,0-1.6-0.7-1.6-1.6S11.2,1,12.1,1c0.9,0,1.6,0.7,1.6,1.6S12.9,4.2,12.1,4.2z M12.1,1.5C11.5,1.5,11,2,11,2.6  s0.5,1.1,1.1,1.1c0.6,0,1.1-0.5,1.1-1.1S12.7,1.5,12.1,1.5z"></path>	<path d="M21.5,4.2c-0.9,0-1.6-0.7-1.6-1.6S20.7,1,21.5,1c0.9,0,1.6,0.7,1.6,1.6S22.4,4.2,21.5,4.2z M21.5,1.5  c-0.6,0-1.1,0.5-1.1,1.1s0.5,1.1,1.1,1.1s1.1-0.5,1.1-1.1S22.2,1.5,21.5,1.5z"></path>	<path d="M31,4.2c-0.9,0-1.6-0.7-1.6-1.6S30.2,1,31,1s1.6,0.7,1.6,1.6S31.9,4.2,31,4.2z M31,1.5c-0.6,0-1.1,0.5-1.1,1.1  s0.5,1.1,1.1,1.1s1.1-0.5,1.1-1.1S31.6,1.5,31,1.5z"></path>	<path d="M40.5,4.2c-0.9,0-1.6-0.7-1.6-1.6S39.6,1,40.5,1s1.6,0.7,1.6,1.6S41.4,4.2,40.5,4.2z M40.5,1.5c-0.6,0-1.1,0.5-1.1,1.1  s0.5,1.1,1.1,1.1s1.1-0.5,1.1-1.1S41.1,1.5,40.5,1.5z"></path>	<path d="M50,4.2c-0.9,0-1.6-0.7-1.6-1.6S49.1,1,50,1s1.6,0.7,1.6,1.6S50.9,4.2,50,4.2z M50,1.5c-0.6,0-1.1,0.5-1.1,1.1  s0.5,1.1,1.1,1.1c0.6,0,1.1-0.5,1.1-1.1S50.6,1.5,50,1.5z"></path>	<path d="M59.5,4.2c-0.9,0-1.6-0.7-1.6-1.6S58.6,1,59.5,1c0.9,0,1.6,0.7,1.6,1.6S60.4,4.2,59.5,4.2z M59.5,1.5  c-0.6,0-1.1,0.5-1.1,1.1s0.5,1.1,1.1,1.1c0.6,0,1.1-0.5,1.1-1.1S60.1,1.5,59.5,1.5z"></path>	<path d="M69,4.2c-0.9,0-1.6-0.7-1.6-1.6S68.1,1,69,1c0.9,0,1.6,0.7,1.6,1.6S69.8,4.2,69,4.2z M69,1.5c-0.6,0-1.1,0.5-1.1,1.1  s0.5,1.1,1.1,1.1c0.6,0,1.1-0.5,1.1-1.1S69.6,1.5,69,1.5z"></path>	<path d="M78.5,4.2c-0.9,0-1.6-0.7-1.6-1.6S77.6,1,78.5,1S80,1.7,80,2.6S79.3,4.2,78.5,4.2z M78.5,1.5c-0.6,0-1.1,0.5-1.1,1.1  s0.5,1.1,1.1,1.1s1.1-0.5,1.1-1.1S79.1,1.5,78.5,1.5z"></path>	<path d="M87.9,4.2c-0.9,0-1.6-0.7-1.6-1.6S87.1,1,87.9,1s1.6,0.7,1.6,1.6S88.8,4.2,87.9,4.2z M87.9,1.5c-0.6,0-1.1,0.5-1.1,1.1  s0.5,1.1,1.1,1.1c0.6,0,1.1-0.5,1.1-1.1S88.5,1.5,87.9,1.5z"></path>	<path d="M97.4,4.2c-0.9,0-1.6-0.7-1.6-1.6S96.5,1,97.4,1S99,1.7,99,2.6S98.3,4.2,97.4,4.2z M97.4,1.5c-0.6,0-1.1,0.5-1.1,1.1  s0.5,1.1,1.1,1.1c0.6,0,1.1-0.5,1.1-1.1S98,1.5,97.4,1.5z"></path>	<path d="M2.6,13.6c-0.9,0-1.6-0.7-1.6-1.6c0-0.9,0.7-1.6,1.6-1.6s1.6,0.7,1.6,1.6C4.2,12.9,3.5,13.6,2.6,13.6z M2.6,11  c-0.6,0-1.1,0.5-1.1,1.1s0.5,1.1,1.1,1.1s1.1-0.5,1.1-1.1S3.2,11,2.6,11z"></path>	<path d="M12.1,13.6c-0.9,0-1.6-0.7-1.6-1.6c0-0.9,0.7-1.6,1.6-1.6c0.9,0,1.6,0.7,1.6,1.6C13.6,12.9,12.9,13.6,12.1,13.6z M12.1,11  c-0.6,0-1.1,0.5-1.1,1.1s0.5,1.1,1.1,1.1c0.6,0,1.1-0.5,1.1-1.1S12.7,11,12.1,11z"></path>	<path d="M21.5,13.6c-0.9,0-1.6-0.7-1.6-1.6c0-0.9,0.7-1.6,1.6-1.6c0.9,0,1.6,0.7,1.6,1.6C23.1,12.9,22.4,13.6,21.5,13.6z M21.5,11  c-0.6,0-1.1,0.5-1.1,1.1s0.5,1.1,1.1,1.1s1.1-0.5,1.1-1.1S22.2,11,21.5,11z"></path>	<path d="M31,13.6c-0.9,0-1.6-0.7-1.6-1.6c0-0.9,0.7-1.6,1.6-1.6s1.6,0.7,1.6,1.6C32.6,12.9,31.9,13.6,31,13.6z M31,11  c-0.6,0-1.1,0.5-1.1,1.1s0.5,1.1,1.1,1.1s1.1-0.5,1.1-1.1S31.6,11,31,11z"></path>	<path d="M40.5,13.6c-0.9,0-1.6-0.7-1.6-1.6c0-0.9,0.7-1.6,1.6-1.6s1.6,0.7,1.6,1.6C42.1,12.9,41.4,13.6,40.5,13.6z M40.5,11  c-0.6,0-1.1,0.5-1.1,1.1s0.5,1.1,1.1,1.1s1.1-0.5,1.1-1.1S41.1,11,40.5,11z"></path>	<path d="M50,13.6c-0.9,0-1.6-0.7-1.6-1.6c0-0.9,0.7-1.6,1.6-1.6s1.6,0.7,1.6,1.6C51.6,12.9,50.9,13.6,50,13.6z M50,11  c-0.6,0-1.1,0.5-1.1,1.1s0.5,1.1,1.1,1.1c0.6,0,1.1-0.5,1.1-1.1S50.6,11,50,11z"></path>	<path d="M59.5,13.6c-0.9,0-1.6-0.7-1.6-1.6c0-0.9,0.7-1.6,1.6-1.6c0.9,0,1.6,0.7,1.6,1.6C61.1,12.9,60.4,13.6,59.5,13.6z M59.5,11  c-0.6,0-1.1,0.5-1.1,1.1s0.5,1.1,1.1,1.1c0.6,0,1.1-0.5,1.1-1.1S60.1,11,59.5,11z"></path>	<path d="M69,13.6c-0.9,0-1.6-0.7-1.6-1.6c0-0.9,0.7-1.6,1.6-1.6c0.9,0,1.6,0.7,1.6,1.6C70.5,12.9,69.8,13.6,69,13.6z M69,11  c-0.6,0-1.1,0.5-1.1,1.1s0.5,1.1,1.1,1.1c0.6,0,1.1-0.5,1.1-1.1S69.6,11,69,11z"></path>	<path d="M78.5,13.6c-0.9,0-1.6-0.7-1.6-1.6c0-0.9,0.7-1.6,1.6-1.6s1.6,0.7,1.6,1.6C80,12.9,79.3,13.6,78.5,13.6z M78.5,11  c-0.6,0-1.1,0.5-1.1,1.1s0.5,1.1,1.1,1.1s1.1-0.5,1.1-1.1S79.1,11,78.5,11z"></path>	<path d="M87.9,13.6c-0.9,0-1.6-0.7-1.6-1.6c0-0.9,0.7-1.6,1.6-1.6s1.6,0.7,1.6,1.6C89.5,12.9,88.8,13.6,87.9,13.6z M87.9,11  c-0.6,0-1.1,0.5-1.1,1.1s0.5,1.1,1.1,1.1c0.6,0,1.1-0.5,1.1-1.1S88.5,11,87.9,11z"></path>	<path d="M97.4,13.6c-0.9,0-1.6-0.7-1.6-1.6c0-0.9,0.7-1.6,1.6-1.6s1.6,0.7,1.6,1.6C99,12.9,98.3,13.6,97.4,13.6z M97.4,11  c-0.6,0-1.1,0.5-1.1,1.1s0.5,1.1,1.1,1.1c0.6,0,1.1-0.5,1.1-1.1S98,11,97.4,11z"></path>	<path d="M2.6,23.1c-0.9,0-1.6-0.7-1.6-1.6C1,20.7,1.7,20,2.6,20s1.6,0.7,1.6,1.6C4.2,22.4,3.5,23.1,2.6,23.1z M2.6,20.4  c-0.6,0-1.1,0.5-1.1,1.1s0.5,1.1,1.1,1.1s1.1-0.5,1.1-1.1S3.2,20.4,2.6,20.4z"></path>	<path d="M12.1,23.1c-0.9,0-1.6-0.7-1.6-1.6c0-0.9,0.7-1.6,1.6-1.6c0.9,0,1.6,0.7,1.6,1.6C13.6,22.4,12.9,23.1,12.1,23.1z   M12.1,20.4c-0.6,0-1.1,0.5-1.1,1.1s0.5,1.1,1.1,1.1c0.6,0,1.1-0.5,1.1-1.1S12.7,20.4,12.1,20.4z"></path>	<path d="M21.5,23.1c-0.9,0-1.6-0.7-1.6-1.6c0-0.9,0.7-1.6,1.6-1.6c0.9,0,1.6,0.7,1.6,1.6C23.1,22.4,22.4,23.1,21.5,23.1z   M21.5,20.4c-0.6,0-1.1,0.5-1.1,1.1s0.5,1.1,1.1,1.1s1.1-0.5,1.1-1.1S22.2,20.4,21.5,20.4z"></path>	<path d="M31,23.1c-0.9,0-1.6-0.7-1.6-1.6c0-0.9,0.7-1.6,1.6-1.6s1.6,0.7,1.6,1.6C32.6,22.4,31.9,23.1,31,23.1z M31,20.4  c-0.6,0-1.1,0.5-1.1,1.1s0.5,1.1,1.1,1.1s1.1-0.5,1.1-1.1S31.6,20.4,31,20.4z"></path>	<path d="M40.5,23.1c-0.9,0-1.6-0.7-1.6-1.6c0-0.9,0.7-1.6,1.6-1.6s1.6,0.7,1.6,1.6C42.1,22.4,41.4,23.1,40.5,23.1z M40.5,20.4  c-0.6,0-1.1,0.5-1.1,1.1s0.5,1.1,1.1,1.1s1.1-0.5,1.1-1.1S41.1,20.4,40.5,20.4z"></path>	<path d="M50,23.1c-0.9,0-1.6-0.7-1.6-1.6c0-0.9,0.7-1.6,1.6-1.6s1.6,0.7,1.6,1.6C51.6,22.4,50.9,23.1,50,23.1z M50,20.4  c-0.6,0-1.1,0.5-1.1,1.1s0.5,1.1,1.1,1.1c0.6,0,1.1-0.5,1.1-1.1S50.6,20.4,50,20.4z"></path>	<path d="M59.5,23.1c-0.9,0-1.6-0.7-1.6-1.6c0-0.9,0.7-1.6,1.6-1.6c0.9,0,1.6,0.7,1.6,1.6C61.1,22.4,60.4,23.1,59.5,23.1z   M59.5,20.4c-0.6,0-1.1,0.5-1.1,1.1s0.5,1.1,1.1,1.1c0.6,0,1.1-0.5,1.1-1.1S60.1,20.4,59.5,20.4z"></path>	<path d="M69,23.1c-0.9,0-1.6-0.7-1.6-1.6c0-0.9,0.7-1.6,1.6-1.6c0.9,0,1.6,0.7,1.6,1.6C70.5,22.4,69.8,23.1,69,23.1z M69,20.4  c-0.6,0-1.1,0.5-1.1,1.1s0.5,1.1,1.1,1.1c0.6,0,1.1-0.5,1.1-1.1S69.6,20.4,69,20.4z"></path>	<path d="M78.5,23.1c-0.9,0-1.6-0.7-1.6-1.6c0-0.9,0.7-1.6,1.6-1.6s1.6,0.7,1.6,1.6C80,22.4,79.3,23.1,78.5,23.1z M78.5,20.4  c-0.6,0-1.1,0.5-1.1,1.1s0.5,1.1,1.1,1.1s1.1-0.5,1.1-1.1S79.1,20.4,78.5,20.4z"></path>	<path d="M87.9,23.1c-0.9,0-1.6-0.7-1.6-1.6c0-0.9,0.7-1.6,1.6-1.6s1.6,0.7,1.6,1.6C89.5,22.4,88.8,23.1,87.9,23.1z M87.9,20.4  c-0.6,0-1.1,0.5-1.1,1.1s0.5,1.1,1.1,1.1c0.6,0,1.1-0.5,1.1-1.1S88.5,20.4,87.9,20.4z"></path>	<path d="M97.4,23.1c-0.9,0-1.6-0.7-1.6-1.6c0-0.9,0.7-1.6,1.6-1.6s1.6,0.7,1.6,1.6C99,22.4,98.3,23.1,97.4,23.1z M97.4,20.4  c-0.6,0-1.1,0.5-1.1,1.1s0.5,1.1,1.1,1.1c0.6,0,1.1-0.5,1.1-1.1S98,20.4,97.4,20.4z"></path>	<path d="M2.6,32.6C1.7,32.6,1,31.9,1,31s0.7-1.6,1.6-1.6s1.6,0.7,1.6,1.6S3.5,32.6,2.6,32.6z M2.6,29.9c-0.6,0-1.1,0.5-1.1,1.1  s0.5,1.1,1.1,1.1s1.1-0.5,1.1-1.1S3.2,29.9,2.6,29.9z"></path>	<path d="M12.1,32.6c-0.9,0-1.6-0.7-1.6-1.6s0.7-1.6,1.6-1.6c0.9,0,1.6,0.7,1.6,1.6S12.9,32.6,12.1,32.6z M12.1,29.9  c-0.6,0-1.1,0.5-1.1,1.1s0.5,1.1,1.1,1.1c0.6,0,1.1-0.5,1.1-1.1S12.7,29.9,12.1,29.9z"></path>	<path d="M21.5,32.6c-0.9,0-1.6-0.7-1.6-1.6s0.7-1.6,1.6-1.6c0.9,0,1.6,0.7,1.6,1.6S22.4,32.6,21.5,32.6z M21.5,29.9  c-0.6,0-1.1,0.5-1.1,1.1s0.5,1.1,1.1,1.1s1.1-0.5,1.1-1.1S22.2,29.9,21.5,29.9z"></path>	<path d="M31,32.6c-0.9,0-1.6-0.7-1.6-1.6s0.7-1.6,1.6-1.6s1.6,0.7,1.6,1.6S31.9,32.6,31,32.6z M31,29.9c-0.6,0-1.1,0.5-1.1,1.1  s0.5,1.1,1.1,1.1s1.1-0.5,1.1-1.1S31.6,29.9,31,29.9z"></path>	<path d="M40.5,32.6c-0.9,0-1.6-0.7-1.6-1.6s0.7-1.6,1.6-1.6s1.6,0.7,1.6,1.6S41.4,32.6,40.5,32.6z M40.5,29.9  c-0.6,0-1.1,0.5-1.1,1.1s0.5,1.1,1.1,1.1s1.1-0.5,1.1-1.1S41.1,29.9,40.5,29.9z"></path>	<path d="M50,32.6c-0.9,0-1.6-0.7-1.6-1.6s0.7-1.6,1.6-1.6s1.6,0.7,1.6,1.6S50.9,32.6,50,32.6z M50,29.9c-0.6,0-1.1,0.5-1.1,1.1  s0.5,1.1,1.1,1.1c0.6,0,1.1-0.5,1.1-1.1S50.6,29.9,50,29.9z"></path>	<path d="M59.5,32.6c-0.9,0-1.6-0.7-1.6-1.6s0.7-1.6,1.6-1.6c0.9,0,1.6,0.7,1.6,1.6S60.4,32.6,59.5,32.6z M59.5,29.9  c-0.6,0-1.1,0.5-1.1,1.1s0.5,1.1,1.1,1.1c0.6,0,1.1-0.5,1.1-1.1S60.1,29.9,59.5,29.9z"></path>	<path d="M69,32.6c-0.9,0-1.6-0.7-1.6-1.6s0.7-1.6,1.6-1.6c0.9,0,1.6,0.7,1.6,1.6S69.8,32.6,69,32.6z M69,29.9  c-0.6,0-1.1,0.5-1.1,1.1s0.5,1.1,1.1,1.1c0.6,0,1.1-0.5,1.1-1.1S69.6,29.9,69,29.9z"></path>	<path d="M78.5,32.6c-0.9,0-1.6-0.7-1.6-1.6s0.7-1.6,1.6-1.6S80,30.2,80,31S79.3,32.6,78.5,32.6z M78.5,29.9c-0.6,0-1.1,0.5-1.1,1.1  s0.5,1.1,1.1,1.1s1.1-0.5,1.1-1.1S79.1,29.9,78.5,29.9z"></path>	<path d="M87.9,32.6c-0.9,0-1.6-0.7-1.6-1.6s0.7-1.6,1.6-1.6s1.6,0.7,1.6,1.6S88.8,32.6,87.9,32.6z M87.9,29.9  c-0.6,0-1.1,0.5-1.1,1.1s0.5,1.1,1.1,1.1c0.6,0,1.1-0.5,1.1-1.1S88.5,29.9,87.9,29.9z"></path>	<path d="M97.4,32.6c-0.9,0-1.6-0.7-1.6-1.6s0.7-1.6,1.6-1.6S99,30.2,99,31S98.3,32.6,97.4,32.6z M97.4,29.9c-0.6,0-1.1,0.5-1.1,1.1  s0.5,1.1,1.1,1.1c0.6,0,1.1-0.5,1.1-1.1S98,29.9,97.4,29.9z"></path>	<path d="M2.6,42.1c-0.9,0-1.6-0.7-1.6-1.6s0.7-1.6,1.6-1.6s1.6,0.7,1.6,1.6S3.5,42.1,2.6,42.1z M2.6,39.4c-0.6,0-1.1,0.5-1.1,1.1  s0.5,1.1,1.1,1.1s1.1-0.5,1.1-1.1S3.2,39.4,2.6,39.4z"></path>	<path d="M12.1,42.1c-0.9,0-1.6-0.7-1.6-1.6s0.7-1.6,1.6-1.6c0.9,0,1.6,0.7,1.6,1.6S12.9,42.1,12.1,42.1z M12.1,39.4  c-0.6,0-1.1,0.5-1.1,1.1s0.5,1.1,1.1,1.1c0.6,0,1.1-0.5,1.1-1.1S12.7,39.4,12.1,39.4z"></path>	<path d="M21.5,42.1c-0.9,0-1.6-0.7-1.6-1.6s0.7-1.6,1.6-1.6c0.9,0,1.6,0.7,1.6,1.6S22.4,42.1,21.5,42.1z M21.5,39.4  c-0.6,0-1.1,0.5-1.1,1.1s0.5,1.1,1.1,1.1s1.1-0.5,1.1-1.1S22.2,39.4,21.5,39.4z"></path>	<path d="M31,42.1c-0.9,0-1.6-0.7-1.6-1.6s0.7-1.6,1.6-1.6s1.6,0.7,1.6,1.6S31.9,42.1,31,42.1z M31,39.4c-0.6,0-1.1,0.5-1.1,1.1  s0.5,1.1,1.1,1.1s1.1-0.5,1.1-1.1S31.6,39.4,31,39.4z"></path>	<path d="M40.5,42.1c-0.9,0-1.6-0.7-1.6-1.6s0.7-1.6,1.6-1.6s1.6,0.7,1.6,1.6S41.4,42.1,40.5,42.1z M40.5,39.4  c-0.6,0-1.1,0.5-1.1,1.1s0.5,1.1,1.1,1.1s1.1-0.5,1.1-1.1S41.1,39.4,40.5,39.4z"></path>	<path d="M50,42.1c-0.9,0-1.6-0.7-1.6-1.6s0.7-1.6,1.6-1.6s1.6,0.7,1.6,1.6S50.9,42.1,50,42.1z M50,39.4c-0.6,0-1.1,0.5-1.1,1.1  s0.5,1.1,1.1,1.1c0.6,0,1.1-0.5,1.1-1.1S50.6,39.4,50,39.4z"></path>	<path d="M59.5,42.1c-0.9,0-1.6-0.7-1.6-1.6s0.7-1.6,1.6-1.6c0.9,0,1.6,0.7,1.6,1.6S60.4,42.1,59.5,42.1z M59.5,39.4  c-0.6,0-1.1,0.5-1.1,1.1s0.5,1.1,1.1,1.1c0.6,0,1.1-0.5,1.1-1.1S60.1,39.4,59.5,39.4z"></path>	<path d="M69,42.1c-0.9,0-1.6-0.7-1.6-1.6s0.7-1.6,1.6-1.6c0.9,0,1.6,0.7,1.6,1.6S69.8,42.1,69,42.1z M69,39.4  c-0.6,0-1.1,0.5-1.1,1.1s0.5,1.1,1.1,1.1c0.6,0,1.1-0.5,1.1-1.1S69.6,39.4,69,39.4z"></path>	<path d="M78.5,42.1c-0.9,0-1.6-0.7-1.6-1.6s0.7-1.6,1.6-1.6s1.6,0.7,1.6,1.6S79.3,42.1,78.5,42.1z M78.5,39.4  c-0.6,0-1.1,0.5-1.1,1.1s0.5,1.1,1.1,1.1s1.1-0.5,1.1-1.1S79.1,39.4,78.5,39.4z"></path>	<path d="M87.9,42.1c-0.9,0-1.6-0.7-1.6-1.6s0.7-1.6,1.6-1.6s1.6,0.7,1.6,1.6S88.8,42.1,87.9,42.1z M87.9,39.4  c-0.6,0-1.1,0.5-1.1,1.1s0.5,1.1,1.1,1.1c0.6,0,1.1-0.5,1.1-1.1S88.5,39.4,87.9,39.4z"></path>	<path d="M97.4,42.1c-0.9,0-1.6-0.7-1.6-1.6s0.7-1.6,1.6-1.6s1.6,0.7,1.6,1.6S98.3,42.1,97.4,42.1z M97.4,39.4  c-0.6,0-1.1,0.5-1.1,1.1s0.5,1.1,1.1,1.1c0.6,0,1.1-0.5,1.1-1.1S98,39.4,97.4,39.4z"></path>	<path d="M2.6,51.6C1.7,51.6,1,50.9,1,50s0.7-1.6,1.6-1.6s1.6,0.7,1.6,1.6S3.5,51.6,2.6,51.6z M2.6,48.9c-0.6,0-1.1,0.5-1.1,1.1  c0,0.6,0.5,1.1,1.1,1.1s1.1-0.5,1.1-1.1C3.7,49.4,3.2,48.9,2.6,48.9z"></path>	<path d="M12.1,51.6c-0.9,0-1.6-0.7-1.6-1.6s0.7-1.6,1.6-1.6c0.9,0,1.6,0.7,1.6,1.6S12.9,51.6,12.1,51.6z M12.1,48.9  c-0.6,0-1.1,0.5-1.1,1.1c0,0.6,0.5,1.1,1.1,1.1c0.6,0,1.1-0.5,1.1-1.1C13.2,49.4,12.7,48.9,12.1,48.9z"></path>	<path d="M21.5,51.6c-0.9,0-1.6-0.7-1.6-1.6s0.7-1.6,1.6-1.6c0.9,0,1.6,0.7,1.6,1.6S22.4,51.6,21.5,51.6z M21.5,48.9  c-0.6,0-1.1,0.5-1.1,1.1c0,0.6,0.5,1.1,1.1,1.1s1.1-0.5,1.1-1.1C22.7,49.4,22.2,48.9,21.5,48.9z"></path>	<path d="M31,51.6c-0.9,0-1.6-0.7-1.6-1.6s0.7-1.6,1.6-1.6s1.6,0.7,1.6,1.6S31.9,51.6,31,51.6z M31,48.9c-0.6,0-1.1,0.5-1.1,1.1  c0,0.6,0.5,1.1,1.1,1.1s1.1-0.5,1.1-1.1C32.1,49.4,31.6,48.9,31,48.9z"></path>	<path d="M40.5,51.6c-0.9,0-1.6-0.7-1.6-1.6s0.7-1.6,1.6-1.6s1.6,0.7,1.6,1.6S41.4,51.6,40.5,51.6z M40.5,48.9  c-0.6,0-1.1,0.5-1.1,1.1c0,0.6,0.5,1.1,1.1,1.1s1.1-0.5,1.1-1.1C41.6,49.4,41.1,48.9,40.5,48.9z"></path>	<path d="M50,51.6c-0.9,0-1.6-0.7-1.6-1.6s0.7-1.6,1.6-1.6s1.6,0.7,1.6,1.6S50.9,51.6,50,51.6z M50,48.9c-0.6,0-1.1,0.5-1.1,1.1  c0,0.6,0.5,1.1,1.1,1.1c0.6,0,1.1-0.5,1.1-1.1C51.1,49.4,50.6,48.9,50,48.9z"></path>	<path d="M59.5,51.6c-0.9,0-1.6-0.7-1.6-1.6s0.7-1.6,1.6-1.6c0.9,0,1.6,0.7,1.6,1.6S60.4,51.6,59.5,51.6z M59.5,48.9  c-0.6,0-1.1,0.5-1.1,1.1c0,0.6,0.5,1.1,1.1,1.1c0.6,0,1.1-0.5,1.1-1.1C60.6,49.4,60.1,48.9,59.5,48.9z"></path>	<path d="M69,51.6c-0.9,0-1.6-0.7-1.6-1.6s0.7-1.6,1.6-1.6c0.9,0,1.6,0.7,1.6,1.6S69.8,51.6,69,51.6z M69,48.9  c-0.6,0-1.1,0.5-1.1,1.1c0,0.6,0.5,1.1,1.1,1.1c0.6,0,1.1-0.5,1.1-1.1C70.1,49.4,69.6,48.9,69,48.9z"></path>	<path d="M78.5,51.6c-0.9,0-1.6-0.7-1.6-1.6s0.7-1.6,1.6-1.6S80,49.1,80,50S79.3,51.6,78.5,51.6z M78.5,48.9c-0.6,0-1.1,0.5-1.1,1.1  c0,0.6,0.5,1.1,1.1,1.1s1.1-0.5,1.1-1.1C79.6,49.4,79.1,48.9,78.5,48.9z"></path>	<path d="M87.9,51.6c-0.9,0-1.6-0.7-1.6-1.6s0.7-1.6,1.6-1.6s1.6,0.7,1.6,1.6S88.8,51.6,87.9,51.6z M87.9,48.9  c-0.6,0-1.1,0.5-1.1,1.1c0,0.6,0.5,1.1,1.1,1.1c0.6,0,1.1-0.5,1.1-1.1C89,49.4,88.5,48.9,87.9,48.9z"></path>	<path d="M97.4,51.6c-0.9,0-1.6-0.7-1.6-1.6s0.7-1.6,1.6-1.6S99,49.1,99,50S98.3,51.6,97.4,51.6z M97.4,48.9c-0.6,0-1.1,0.5-1.1,1.1  c0,0.6,0.5,1.1,1.1,1.1c0.6,0,1.1-0.5,1.1-1.1C98.5,49.4,98,48.9,97.4,48.9z"></path>	<path d="M2.6,61.1c-0.9,0-1.6-0.7-1.6-1.6s0.7-1.6,1.6-1.6s1.6,0.7,1.6,1.6S3.5,61.1,2.6,61.1z M2.6,58.4c-0.6,0-1.1,0.5-1.1,1.1  c0,0.6,0.5,1.1,1.1,1.1s1.1-0.5,1.1-1.1C3.7,58.9,3.2,58.4,2.6,58.4z"></path>	<path d="M12.1,61.1c-0.9,0-1.6-0.7-1.6-1.6s0.7-1.6,1.6-1.6c0.9,0,1.6,0.7,1.6,1.6S12.9,61.1,12.1,61.1z M12.1,58.4  c-0.6,0-1.1,0.5-1.1,1.1c0,0.6,0.5,1.1,1.1,1.1c0.6,0,1.1-0.5,1.1-1.1C13.2,58.9,12.7,58.4,12.1,58.4z"></path>	<path d="M21.5,61.1c-0.9,0-1.6-0.7-1.6-1.6s0.7-1.6,1.6-1.6c0.9,0,1.6,0.7,1.6,1.6S22.4,61.1,21.5,61.1z M21.5,58.4  c-0.6,0-1.1,0.5-1.1,1.1c0,0.6,0.5,1.1,1.1,1.1s1.1-0.5,1.1-1.1C22.7,58.9,22.2,58.4,21.5,58.4z"></path>	<path d="M31,61.1c-0.9,0-1.6-0.7-1.6-1.6s0.7-1.6,1.6-1.6s1.6,0.7,1.6,1.6S31.9,61.1,31,61.1z M31,58.4c-0.6,0-1.1,0.5-1.1,1.1  c0,0.6,0.5,1.1,1.1,1.1s1.1-0.5,1.1-1.1C32.1,58.9,31.6,58.4,31,58.4z"></path>	<path d="M40.5,61.1c-0.9,0-1.6-0.7-1.6-1.6s0.7-1.6,1.6-1.6s1.6,0.7,1.6,1.6S41.4,61.1,40.5,61.1z M40.5,58.4  c-0.6,0-1.1,0.5-1.1,1.1c0,0.6,0.5,1.1,1.1,1.1s1.1-0.5,1.1-1.1C41.6,58.9,41.1,58.4,40.5,58.4z"></path>	<path d="M50,61.1c-0.9,0-1.6-0.7-1.6-1.6s0.7-1.6,1.6-1.6s1.6,0.7,1.6,1.6S50.9,61.1,50,61.1z M50,58.4c-0.6,0-1.1,0.5-1.1,1.1  c0,0.6,0.5,1.1,1.1,1.1c0.6,0,1.1-0.5,1.1-1.1C51.1,58.9,50.6,58.4,50,58.4z"></path>	<path d="M59.5,61.1c-0.9,0-1.6-0.7-1.6-1.6s0.7-1.6,1.6-1.6c0.9,0,1.6,0.7,1.6,1.6S60.4,61.1,59.5,61.1z M59.5,58.4  c-0.6,0-1.1,0.5-1.1,1.1c0,0.6,0.5,1.1,1.1,1.1c0.6,0,1.1-0.5,1.1-1.1C60.6,58.9,60.1,58.4,59.5,58.4z"></path>	<path d="M69,61.1c-0.9,0-1.6-0.7-1.6-1.6s0.7-1.6,1.6-1.6c0.9,0,1.6,0.7,1.6,1.6S69.8,61.1,69,61.1z M69,58.4  c-0.6,0-1.1,0.5-1.1,1.1c0,0.6,0.5,1.1,1.1,1.1c0.6,0,1.1-0.5,1.1-1.1C70.1,58.9,69.6,58.4,69,58.4z"></path>	<path d="M78.5,61.1c-0.9,0-1.6-0.7-1.6-1.6s0.7-1.6,1.6-1.6s1.6,0.7,1.6,1.6S79.3,61.1,78.5,61.1z M78.5,58.4  c-0.6,0-1.1,0.5-1.1,1.1c0,0.6,0.5,1.1,1.1,1.1s1.1-0.5,1.1-1.1C79.6,58.9,79.1,58.4,78.5,58.4z"></path>	<path d="M87.9,61.1c-0.9,0-1.6-0.7-1.6-1.6s0.7-1.6,1.6-1.6s1.6,0.7,1.6,1.6S88.8,61.1,87.9,61.1z M87.9,58.4  c-0.6,0-1.1,0.5-1.1,1.1c0,0.6,0.5,1.1,1.1,1.1c0.6,0,1.1-0.5,1.1-1.1C89,58.9,88.5,58.4,87.9,58.4z"></path>	<path d="M97.4,61.1c-0.9,0-1.6-0.7-1.6-1.6s0.7-1.6,1.6-1.6s1.6,0.7,1.6,1.6S98.3,61.1,97.4,61.1z M97.4,58.4  c-0.6,0-1.1,0.5-1.1,1.1c0,0.6,0.5,1.1,1.1,1.1c0.6,0,1.1-0.5,1.1-1.1C98.5,58.9,98,58.4,97.4,58.4z"></path>	<path d="M2.6,70.5C1.7,70.5,1,69.8,1,69c0-0.9,0.7-1.6,1.6-1.6s1.6,0.7,1.6,1.6C4.2,69.8,3.5,70.5,2.6,70.5z M2.6,67.9  c-0.6,0-1.1,0.5-1.1,1.1c0,0.6,0.5,1.1,1.1,1.1s1.1-0.5,1.1-1.1C3.7,68.4,3.2,67.9,2.6,67.9z"></path>	<path d="M12.1,70.5c-0.9,0-1.6-0.7-1.6-1.6c0-0.9,0.7-1.6,1.6-1.6c0.9,0,1.6,0.7,1.6,1.6C13.6,69.8,12.9,70.5,12.1,70.5z   M12.1,67.9c-0.6,0-1.1,0.5-1.1,1.1c0,0.6,0.5,1.1,1.1,1.1c0.6,0,1.1-0.5,1.1-1.1C13.2,68.4,12.7,67.9,12.1,67.9z"></path>	<path d="M21.5,70.5c-0.9,0-1.6-0.7-1.6-1.6c0-0.9,0.7-1.6,1.6-1.6c0.9,0,1.6,0.7,1.6,1.6C23.1,69.8,22.4,70.5,21.5,70.5z   M21.5,67.9c-0.6,0-1.1,0.5-1.1,1.1c0,0.6,0.5,1.1,1.1,1.1s1.1-0.5,1.1-1.1C22.7,68.4,22.2,67.9,21.5,67.9z"></path>	<path d="M31,70.5c-0.9,0-1.6-0.7-1.6-1.6c0-0.9,0.7-1.6,1.6-1.6s1.6,0.7,1.6,1.6C32.6,69.8,31.9,70.5,31,70.5z M31,67.9  c-0.6,0-1.1,0.5-1.1,1.1c0,0.6,0.5,1.1,1.1,1.1s1.1-0.5,1.1-1.1C32.1,68.4,31.6,67.9,31,67.9z"></path>	<path d="M40.5,70.5c-0.9,0-1.6-0.7-1.6-1.6c0-0.9,0.7-1.6,1.6-1.6s1.6,0.7,1.6,1.6C42.1,69.8,41.4,70.5,40.5,70.5z M40.5,67.9  c-0.6,0-1.1,0.5-1.1,1.1c0,0.6,0.5,1.1,1.1,1.1s1.1-0.5,1.1-1.1C41.6,68.4,41.1,67.9,40.5,67.9z"></path>	<path d="M50,70.5c-0.9,0-1.6-0.7-1.6-1.6c0-0.9,0.7-1.6,1.6-1.6s1.6,0.7,1.6,1.6C51.6,69.8,50.9,70.5,50,70.5z M50,67.9  c-0.6,0-1.1,0.5-1.1,1.1c0,0.6,0.5,1.1,1.1,1.1c0.6,0,1.1-0.5,1.1-1.1C51.1,68.4,50.6,67.9,50,67.9z"></path>	<path d="M59.5,70.5c-0.9,0-1.6-0.7-1.6-1.6c0-0.9,0.7-1.6,1.6-1.6c0.9,0,1.6,0.7,1.6,1.6C61.1,69.8,60.4,70.5,59.5,70.5z   M59.5,67.9c-0.6,0-1.1,0.5-1.1,1.1c0,0.6,0.5,1.1,1.1,1.1c0.6,0,1.1-0.5,1.1-1.1C60.6,68.4,60.1,67.9,59.5,67.9z"></path>	<path d="M69,70.5c-0.9,0-1.6-0.7-1.6-1.6c0-0.9,0.7-1.6,1.6-1.6c0.9,0,1.6,0.7,1.6,1.6C70.5,69.8,69.8,70.5,69,70.5z M69,67.9  c-0.6,0-1.1,0.5-1.1,1.1c0,0.6,0.5,1.1,1.1,1.1c0.6,0,1.1-0.5,1.1-1.1C70.1,68.4,69.6,67.9,69,67.9z"></path>	<path d="M78.5,70.5c-0.9,0-1.6-0.7-1.6-1.6c0-0.9,0.7-1.6,1.6-1.6S80,68.1,80,69C80,69.8,79.3,70.5,78.5,70.5z M78.5,67.9  c-0.6,0-1.1,0.5-1.1,1.1c0,0.6,0.5,1.1,1.1,1.1s1.1-0.5,1.1-1.1C79.6,68.4,79.1,67.9,78.5,67.9z"></path>	<path d="M87.9,70.5c-0.9,0-1.6-0.7-1.6-1.6c0-0.9,0.7-1.6,1.6-1.6s1.6,0.7,1.6,1.6C89.5,69.8,88.8,70.5,87.9,70.5z M87.9,67.9  c-0.6,0-1.1,0.5-1.1,1.1c0,0.6,0.5,1.1,1.1,1.1c0.6,0,1.1-0.5,1.1-1.1C89,68.4,88.5,67.9,87.9,67.9z"></path>	<path d="M97.4,70.5c-0.9,0-1.6-0.7-1.6-1.6c0-0.9,0.7-1.6,1.6-1.6S99,68.1,99,69C99,69.8,98.3,70.5,97.4,70.5z M97.4,67.9  c-0.6,0-1.1,0.5-1.1,1.1c0,0.6,0.5,1.1,1.1,1.1c0.6,0,1.1-0.5,1.1-1.1C98.5,68.4,98,67.9,97.4,67.9z"></path>	<path d="M2.6,80C1.7,80,1,79.3,1,78.5s0.7-1.6,1.6-1.6s1.6,0.7,1.6,1.6S3.5,80,2.6,80z M2.6,77.3c-0.6,0-1.1,0.5-1.1,1.1  c0,0.6,0.5,1.1,1.1,1.1s1.1-0.5,1.1-1.1C3.7,77.8,3.2,77.3,2.6,77.3z"></path>	<path d="M12.1,80c-0.9,0-1.6-0.7-1.6-1.6s0.7-1.6,1.6-1.6c0.9,0,1.6,0.7,1.6,1.6S12.9,80,12.1,80z M12.1,77.3  c-0.6,0-1.1,0.5-1.1,1.1c0,0.6,0.5,1.1,1.1,1.1c0.6,0,1.1-0.5,1.1-1.1C13.2,77.8,12.7,77.3,12.1,77.3z"></path>	<path d="M21.5,80c-0.9,0-1.6-0.7-1.6-1.6s0.7-1.6,1.6-1.6c0.9,0,1.6,0.7,1.6,1.6S22.4,80,21.5,80z M21.5,77.3  c-0.6,0-1.1,0.5-1.1,1.1c0,0.6,0.5,1.1,1.1,1.1s1.1-0.5,1.1-1.1C22.7,77.8,22.2,77.3,21.5,77.3z"></path>	<path d="M31,80c-0.9,0-1.6-0.7-1.6-1.6s0.7-1.6,1.6-1.6s1.6,0.7,1.6,1.6S31.9,80,31,80z M31,77.3c-0.6,0-1.1,0.5-1.1,1.1  c0,0.6,0.5,1.1,1.1,1.1s1.1-0.5,1.1-1.1C32.1,77.8,31.6,77.3,31,77.3z"></path>	<path d="M40.5,80c-0.9,0-1.6-0.7-1.6-1.6s0.7-1.6,1.6-1.6s1.6,0.7,1.6,1.6S41.4,80,40.5,80z M40.5,77.3c-0.6,0-1.1,0.5-1.1,1.1  c0,0.6,0.5,1.1,1.1,1.1s1.1-0.5,1.1-1.1C41.6,77.8,41.1,77.3,40.5,77.3z"></path>	<path d="M50,80c-0.9,0-1.6-0.7-1.6-1.6s0.7-1.6,1.6-1.6s1.6,0.7,1.6,1.6S50.9,80,50,80z M50,77.3c-0.6,0-1.1,0.5-1.1,1.1  c0,0.6,0.5,1.1,1.1,1.1c0.6,0,1.1-0.5,1.1-1.1C51.1,77.8,50.6,77.3,50,77.3z"></path>	<path d="M59.5,80c-0.9,0-1.6-0.7-1.6-1.6s0.7-1.6,1.6-1.6c0.9,0,1.6,0.7,1.6,1.6S60.4,80,59.5,80z M59.5,77.3  c-0.6,0-1.1,0.5-1.1,1.1c0,0.6,0.5,1.1,1.1,1.1c0.6,0,1.1-0.5,1.1-1.1C60.6,77.8,60.1,77.3,59.5,77.3z"></path>	<path d="M69,80c-0.9,0-1.6-0.7-1.6-1.6s0.7-1.6,1.6-1.6c0.9,0,1.6,0.7,1.6,1.6S69.8,80,69,80z M69,77.3c-0.6,0-1.1,0.5-1.1,1.1  c0,0.6,0.5,1.1,1.1,1.1c0.6,0,1.1-0.5,1.1-1.1C70.1,77.8,69.6,77.3,69,77.3z"></path>	<path d="M78.5,80c-0.9,0-1.6-0.7-1.6-1.6s0.7-1.6,1.6-1.6s1.6,0.7,1.6,1.6S79.3,80,78.5,80z M78.5,77.3c-0.6,0-1.1,0.5-1.1,1.1  c0,0.6,0.5,1.1,1.1,1.1s1.1-0.5,1.1-1.1C79.6,77.8,79.1,77.3,78.5,77.3z"></path>	<path d="M87.9,80c-0.9,0-1.6-0.7-1.6-1.6s0.7-1.6,1.6-1.6s1.6,0.7,1.6,1.6S88.8,80,87.9,80z M87.9,77.3c-0.6,0-1.1,0.5-1.1,1.1  c0,0.6,0.5,1.1,1.1,1.1c0.6,0,1.1-0.5,1.1-1.1C89,77.8,88.5,77.3,87.9,77.3z"></path>	<path d="M97.4,80c-0.9,0-1.6-0.7-1.6-1.6s0.7-1.6,1.6-1.6s1.6,0.7,1.6,1.6S98.3,80,97.4,80z M97.4,77.3c-0.6,0-1.1,0.5-1.1,1.1  c0,0.6,0.5,1.1,1.1,1.1c0.6,0,1.1-0.5,1.1-1.1C98.5,77.8,98,77.3,97.4,77.3z"></path>	<path d="M2.6,89.5c-0.9,0-1.6-0.7-1.6-1.6s0.7-1.6,1.6-1.6s1.6,0.7,1.6,1.6S3.5,89.5,2.6,89.5z M2.6,86.8c-0.6,0-1.1,0.5-1.1,1.1  C1.5,88.5,2,89,2.6,89s1.1-0.5,1.1-1.1C3.7,87.3,3.2,86.8,2.6,86.8z"></path>	<path d="M12.1,89.5c-0.9,0-1.6-0.7-1.6-1.6s0.7-1.6,1.6-1.6c0.9,0,1.6,0.7,1.6,1.6S12.9,89.5,12.1,89.5z M12.1,86.8  c-0.6,0-1.1,0.5-1.1,1.1c0,0.6,0.5,1.1,1.1,1.1c0.6,0,1.1-0.5,1.1-1.1C13.2,87.3,12.7,86.8,12.1,86.8z"></path>	<path d="M21.5,89.5c-0.9,0-1.6-0.7-1.6-1.6s0.7-1.6,1.6-1.6c0.9,0,1.6,0.7,1.6,1.6S22.4,89.5,21.5,89.5z M21.5,86.8  c-0.6,0-1.1,0.5-1.1,1.1c0,0.6,0.5,1.1,1.1,1.1s1.1-0.5,1.1-1.1C22.7,87.3,22.2,86.8,21.5,86.8z"></path>	<path d="M31,89.5c-0.9,0-1.6-0.7-1.6-1.6s0.7-1.6,1.6-1.6s1.6,0.7,1.6,1.6S31.9,89.5,31,89.5z M31,86.8c-0.6,0-1.1,0.5-1.1,1.1  c0,0.6,0.5,1.1,1.1,1.1s1.1-0.5,1.1-1.1C32.1,87.3,31.6,86.8,31,86.8z"></path>	<path d="M40.5,89.5c-0.9,0-1.6-0.7-1.6-1.6s0.7-1.6,1.6-1.6s1.6,0.7,1.6,1.6S41.4,89.5,40.5,89.5z M40.5,86.8  c-0.6,0-1.1,0.5-1.1,1.1c0,0.6,0.5,1.1,1.1,1.1s1.1-0.5,1.1-1.1C41.6,87.3,41.1,86.8,40.5,86.8z"></path>	<path d="M50,89.5c-0.9,0-1.6-0.7-1.6-1.6s0.7-1.6,1.6-1.6s1.6,0.7,1.6,1.6S50.9,89.5,50,89.5z M50,86.8c-0.6,0-1.1,0.5-1.1,1.1  c0,0.6,0.5,1.1,1.1,1.1c0.6,0,1.1-0.5,1.1-1.1C51.1,87.3,50.6,86.8,50,86.8z"></path>	<path d="M59.5,89.5c-0.9,0-1.6-0.7-1.6-1.6s0.7-1.6,1.6-1.6c0.9,0,1.6,0.7,1.6,1.6S60.4,89.5,59.5,89.5z M59.5,86.8  c-0.6,0-1.1,0.5-1.1,1.1c0,0.6,0.5,1.1,1.1,1.1c0.6,0,1.1-0.5,1.1-1.1C60.6,87.3,60.1,86.8,59.5,86.8z"></path>	<path d="M69,89.5c-0.9,0-1.6-0.7-1.6-1.6s0.7-1.6,1.6-1.6c0.9,0,1.6,0.7,1.6,1.6S69.8,89.5,69,89.5z M69,86.8  c-0.6,0-1.1,0.5-1.1,1.1c0,0.6,0.5,1.1,1.1,1.1c0.6,0,1.1-0.5,1.1-1.1C70.1,87.3,69.6,86.8,69,86.8z"></path>	<path d="M78.5,89.5c-0.9,0-1.6-0.7-1.6-1.6s0.7-1.6,1.6-1.6s1.6,0.7,1.6,1.6S79.3,89.5,78.5,89.5z M78.5,86.8  c-0.6,0-1.1,0.5-1.1,1.1c0,0.6,0.5,1.1,1.1,1.1s1.1-0.5,1.1-1.1C79.6,87.3,79.1,86.8,78.5,86.8z"></path>	<path d="M87.9,89.5c-0.9,0-1.6-0.7-1.6-1.6s0.7-1.6,1.6-1.6s1.6,0.7,1.6,1.6S88.8,89.5,87.9,89.5z M87.9,86.8  c-0.6,0-1.1,0.5-1.1,1.1c0,0.6,0.5,1.1,1.1,1.1c0.6,0,1.1-0.5,1.1-1.1C89,87.3,88.5,86.8,87.9,86.8z"></path>	<path d="M97.4,89.5c-0.9,0-1.6-0.7-1.6-1.6s0.7-1.6,1.6-1.6s1.6,0.7,1.6,1.6S98.3,89.5,97.4,89.5z M97.4,86.8  c-0.6,0-1.1,0.5-1.1,1.1c0,0.6,0.5,1.1,1.1,1.1c0.6,0,1.1-0.5,1.1-1.1C98.5,87.3,98,86.8,97.4,86.8z"></path>	<path d="M2.6,99C1.7,99,1,98.3,1,97.4s0.7-1.6,1.6-1.6s1.6,0.7,1.6,1.6S3.5,99,2.6,99z M2.6,96.3c-0.6,0-1.1,0.5-1.1,1.1  c0,0.6,0.5,1.1,1.1,1.1s1.1-0.5,1.1-1.1C3.7,96.8,3.2,96.3,2.6,96.3z"></path>	<path d="M12.1,99c-0.9,0-1.6-0.7-1.6-1.6s0.7-1.6,1.6-1.6c0.9,0,1.6,0.7,1.6,1.6S12.9,99,12.1,99z M12.1,96.3  c-0.6,0-1.1,0.5-1.1,1.1c0,0.6,0.5,1.1,1.1,1.1c0.6,0,1.1-0.5,1.1-1.1C13.2,96.8,12.7,96.3,12.1,96.3z"></path>	<path d="M21.5,99c-0.9,0-1.6-0.7-1.6-1.6s0.7-1.6,1.6-1.6c0.9,0,1.6,0.7,1.6,1.6S22.4,99,21.5,99z M21.5,96.3  c-0.6,0-1.1,0.5-1.1,1.1c0,0.6,0.5,1.1,1.1,1.1s1.1-0.5,1.1-1.1C22.7,96.8,22.2,96.3,21.5,96.3z"></path>	<path d="M31,99c-0.9,0-1.6-0.7-1.6-1.6s0.7-1.6,1.6-1.6s1.6,0.7,1.6,1.6S31.9,99,31,99z M31,96.3c-0.6,0-1.1,0.5-1.1,1.1  c0,0.6,0.5,1.1,1.1,1.1s1.1-0.5,1.1-1.1C32.1,96.8,31.6,96.3,31,96.3z"></path>	<path d="M40.5,99c-0.9,0-1.6-0.7-1.6-1.6s0.7-1.6,1.6-1.6s1.6,0.7,1.6,1.6S41.4,99,40.5,99z M40.5,96.3c-0.6,0-1.1,0.5-1.1,1.1  c0,0.6,0.5,1.1,1.1,1.1s1.1-0.5,1.1-1.1C41.6,96.8,41.1,96.3,40.5,96.3z"></path>	<path d="M50,99c-0.9,0-1.6-0.7-1.6-1.6s0.7-1.6,1.6-1.6s1.6,0.7,1.6,1.6S50.9,99,50,99z M50,96.3c-0.6,0-1.1,0.5-1.1,1.1  c0,0.6,0.5,1.1,1.1,1.1c0.6,0,1.1-0.5,1.1-1.1C51.1,96.8,50.6,96.3,50,96.3z"></path>	<path d="M59.5,99c-0.9,0-1.6-0.7-1.6-1.6s0.7-1.6,1.6-1.6c0.9,0,1.6,0.7,1.6,1.6S60.4,99,59.5,99z M59.5,96.3  c-0.6,0-1.1,0.5-1.1,1.1c0,0.6,0.5,1.1,1.1,1.1c0.6,0,1.1-0.5,1.1-1.1C60.6,96.8,60.1,96.3,59.5,96.3z"></path>	<path d="M69,99c-0.9,0-1.6-0.7-1.6-1.6s0.7-1.6,1.6-1.6c0.9,0,1.6,0.7,1.6,1.6S69.8,99,69,99z M69,96.3c-0.6,0-1.1,0.5-1.1,1.1  c0,0.6,0.5,1.1,1.1,1.1c0.6,0,1.1-0.5,1.1-1.1C70.1,96.8,69.6,96.3,69,96.3z"></path>	<path d="M78.5,99c-0.9,0-1.6-0.7-1.6-1.6s0.7-1.6,1.6-1.6s1.6,0.7,1.6,1.6S79.3,99,78.5,99z M78.5,96.3c-0.6,0-1.1,0.5-1.1,1.1  c0,0.6,0.5,1.1,1.1,1.1s1.1-0.5,1.1-1.1C79.6,96.8,79.1,96.3,78.5,96.3z"></path>	<path d="M87.9,99c-0.9,0-1.6-0.7-1.6-1.6s0.7-1.6,1.6-1.6s1.6,0.7,1.6,1.6S88.8,99,87.9,99z M87.9,96.3c-0.6,0-1.1,0.5-1.1,1.1  c0,0.6,0.5,1.1,1.1,1.1c0.6,0,1.1-0.5,1.1-1.1C89,96.8,88.5,96.3,87.9,96.3z"></path>	<path d="M97.4,99c-0.9,0-1.6-0.7-1.6-1.6s0.7-1.6,1.6-1.6s1.6,0.7,1.6,1.6S98.3,99,97.4,99z M97.4,96.3c-0.6,0-1.1,0.5-1.1,1.1  c0,0.6,0.5,1.1,1.1,1.1c0.6,0,1.1-0.5,1.1-1.1C98.5,96.8,98,96.3,97.4,96.3z"></path></g></svg>