<svg xmlns="http://www.w3.org/2000/svg" xmlns:xlink="http://www.w3.org/1999/xlink" x="0px" y="0px" viewBox="0 0 100 100" style="enable-background:new 0 0 100 100;" xml:space="preserve">
<style type="text/css">
	.icon-image-layer2{fill:none;stroke:currentcolor;stroke-width:4;stroke-linecap:round;stroke-linejoin:round;stroke-miterlimit:10;}
</style>
<line class="icon-image-layer2" x1="24.2" y1="63.6" x2="52.1" y2="63.6"/>
<path class="icon-image-layer2" d="M75.8,36.7V21.5c0-2.7-2.2-4.8-4.8-4.8H13.7c-2.7,0-4.8,2.2-4.8,4.8v20.1"/>
<g>
<path class="icon-image-layer2" d="M52.1,73.6V49.3c0-2.9,2.4-5.3,5.3-5.3h29.7c2.9,0,5.3,2.4,5.3,5.3v24.3"/>
<line class="icon-image-layer2" x1="28.3" y1="80.3" x2="98" y2="80.3"/>
</g>
<g>
<path class="icon-image-layer2" d="M16.9,82.4H8.8c-3.6,0-6.6-2.9-6.6-6.6V55.9c0-3.6,2.9-6.6,6.6-6.6h8.1c3.6,0,6.6,2.9,6.6,6.6v19.9C23.5,79.5,20.5,82.4,16.9,82.4z"/>
<line class="icon-image-layer2" x1="10.9" y1="77.2" x2="14.7" y2="77.2"/>
</g>
<line class="icon-image-layer2" x1="39.8" y1="68.5" x2="36.2" y2="79.2"/>
<line class="icon-image-layer2" x1="67.9" y1="49.6" x2="76.7" y2="49.6"/>
<g>
<line class="icon-image-layer2" x1="28.5" y1="41.3" x2="41" y2="28.7"/>
<line class="icon-image-layer2" x1="33.1" y1="51.9" x2="54.3" y2="30.6"/></g>
</svg>
