<svg xmlns="http://www.w3.org/2000/svg" xmlns:xlink="http://www.w3.org/1999/xlink" x="0px" y="0px" viewBox="0 0 100 100" style="enable-background:new 0 0 100 100;" xml:space="preserve">
<style type="text/css">
	.icon-image-layer5{fill:none;stroke:currentcolor;stroke-width:4;stroke-linecap:round;stroke-linejoin:round;stroke-miterlimit:10;}
</style>
<g><g><g><g>
<polyline class="icon-image-layer5" points="85.2,4.4 66.8,5.1 69.9,15.5 "/>
<path class="icon-image-layer5" d="M49.1,94.4C74.5,94.4,95,73.9,95,48.6c0-13.8-6.1-26.1-15.7-34.5L77,12.1"/>
<polyline class="icon-image-layer5" points="33.2,83.1 38.9,93.6 20.4,97.9 "/>
<path class="icon-image-layer5" d="M56.6,3.3c-2.4-0.4-4.9-0.6-7.5-0.6C23.8,2.7,3.3,23.2,3.3,48.6c0,16.3,8.5,30.7,21.4,38.8l1.6,0.9"/></g></g></g>
<g><g><line class="icon-image-layer5" x1="44.7" y1="80.6" x2="52.3" y2="82.6"/>
<path class="icon-image-layer5" d="M57,68.3c1-3.9,3.1-6.7,5.9-10.2c2.4-3,3.9-6.9,3.9-11c0-9.9-8.1-17.9-18.1-17.7c-9.6,0.2-17.4,8.3-17.3,17.9c0.1,4.1,1.5,7.9,4,10.9c3.6,4.4,5.8,7.7,6.4,13.3l0.1,0.5l14.6,3.6"/>
<line class="icon-image-layer5" x1="49.2" y1="21.6" x2="49.2" y2="15.7"/>
<line class="icon-image-layer5" x1="67.2" y1="29.4" x2="71.3" y2="25.3"/>
<line class="icon-image-layer5" x1="74.4" y1="47.6" x2="80.2" y2="47.6"/>
<line class="icon-image-layer5" x1="66.6" y1="65.6" x2="70.7" y2="69.8"/>
<line class="icon-image-layer5" x1="30.3" y1="65.1" x2="26.2" y2="69.2"/>
<line class="icon-image-layer5" x1="23.1" y1="46.8" x2="17.3" y2="46.8"/>
<line class="icon-image-layer5" x1="30.9" y1="28.8" x2="26.8" y2="24.7"/></g>
<polyline class="icon-image-layer5" points="41.1,49.8 47.1,55.8 58.9,44 "/></g>
</g>
</svg>
