<svg xmlns="http://www.w3.org/2000/svg" xmlns:xlink="http://www.w3.org/1999/xlink" x="0px" y="0px"
	 viewBox="0 0 100 100" style="enable-background:new 0 0 100 100;" xml:space="preserve">
<style type="text/css">
	.icon-image-layer3{fill:none;stroke:currentcolor;stroke-width:4;stroke-linecap:round;stroke-linejoin:round;stroke-miterlimit:10;}
</style>
<g><g><g><g><path class="icon-image-layer3" d="M96.7,16.1L76.3,44c-0.4,0.5-0.9,1-1.5,1.3l-12.1,7c-0.6,0.3-1.3-0.2-1.1-0.8l2.8-13.8c0.1-0.7,0.4-1.3,0.8-1.9L85.6,7.9c2.2-3.1,6.5-3.7,9.6-1.5l0,0C98.2,8.7,98.9,13,96.7,16.1z"/></g></g><line class="icon-image-layer3" x1="75" y1="44.3" x2="68.7" y2="39.7"/></g>
<g><g><g><g>
<path class="icon-image-layer3" d="M75.2,7.4H9.7c-3.9,0-7,3.1-7,7v57.1c0,3.9,3.1,7,7,7h74.8c3.9,0,7-3.1,7-7V36.7"/>
<line class="icon-image-layer3" x1="61.4" y1="95" x2="57.2" y2="78.5"/>
<line class="icon-image-layer3" x1="32.8" y1="95" x2="37" y2="78.5"/>
<line class="icon-image-layer3" x1="26.8" y1="95.9" x2="67.4" y2="95.9"/></g></g></g></g>
<path class="icon-image-layer3" d="M10.3,18.1v45.7c0,0.6,0.5,1.2,1.2,1.2h71.2c0.6,0,1.2-0.5,1.2-1.2V49.5"/></g>
</svg>
